
<svg version="1.0" xmlns="http://www.w3.org/2000/svg"
 width="306.000000pt" height="247.000000pt" viewBox="0 0 306.000000 247.000000"
 preserveAspectRatio="xMidYMid meet">

<g transform="translate(0.000000,247.000000) scale(0.100000,-0.100000)"
fill="#2c3e50" stroke="none">
<path d="M2932 2447 c-26 -27 -29 -79 -7 -97 8 -7 15 -16 15 -19 0 -4 -22 -36
-50 -71 -46 -61 -51 -64 -86 -61 -28 2 -42 -3 -63 -23 l-26 -25 -68 20 c-57
17 -67 23 -67 43 0 58 -87 87 -128 43 -66 -70 34 -171 104 -106 23 22 23 22
94 3 59 -15 70 -21 70 -39 0 -12 5 -26 12 -33 10 -10 -29 -54 -181 -206 l-194
-194 -39 5 c-31 5 -44 1 -63 -17 -29 -27 -33 -74 -9 -101 14 -16 8 -34 -73
-223 -82 -193 -89 -206 -114 -206 -34 0 -69 -39 -69 -77 0 -23 9 -39 31 -58
l32 -26 -12 -70 c-7 -38 -18 -69 -24 -69 -6 0 -20 -9 -32 -20 l-21 -20 -335
137 -335 137 4 33 c2 18 -1 39 -6 46 -8 10 6 43 56 130 66 115 68 117 103 117
70 0 106 82 56 128 -13 12 -29 22 -35 22 -8 0 -12 26 -12 86 0 83 1 86 30 111
60 50 24 138 -54 132 -35 -3 -43 3 -209 169 -95 94 -177 172 -182 172 -5 0 71
-81 170 -180 141 -141 177 -182 167 -192 -20 -20 -14 -72 11 -96 13 -12 31
-22 40 -22 15 0 17 -12 17 -90 0 -68 -3 -90 -13 -90 -43 0 -73 -86 -43 -119
13 -14 7 -30 -52 -132 l-67 -116 -38 5 c-30 4 -43 0 -61 -17 l-23 -22 -266
183 c-232 159 -267 186 -267 209 0 34 -39 69 -77 69 -23 0 -38 -9 -57 -31
l-26 -30 -132 26 c-188 37 -178 34 -178 59 0 58 -87 87 -128 43 -67 -71 35
-171 105 -105 l24 22 147 -28 c169 -33 172 -34 172 -50 0 -22 46 -56 75 -56
16 0 38 9 50 20 l22 21 266 -183 c232 -159 267 -186 267 -209 0 -52 72 -87
118 -58 14 9 81 -15 355 -127 323 -132 337 -139 337 -164 0 -27 36 -70 58 -70
9 0 12 -41 12 -147 0 -82 3 -165 6 -186 6 -32 4 -37 -13 -37 -50 0 -81 -83
-46 -122 16 -18 15 -20 -10 -46 -21 -20 -29 -24 -39 -14 -7 7 -26 12 -43 12
-66 0 -100 -83 -52 -128 53 -50 127 -12 127 64 0 48 34 84 78 84 67 0 96 88
44 132 l-29 24 -6 182 c-4 132 -3 182 6 182 6 0 24 12 39 27 l28 27 292 -34
293 -33 28 -34 c35 -41 82 -45 115 -10 46 49 12 127 -54 127 -31 0 -74 -34
-74 -58 0 -15 20 -17 -272 18 -357 42 -338 38 -338 59 0 19 -39 61 -57 61 -7
0 -8 12 -3 38 4 20 11 54 14 75 4 20 13 37 20 37 22 0 56 45 56 75 0 16 -9 38
-20 50 l-21 22 87 201 86 202 32 0 c22 0 40 8 56 25 19 20 22 31 17 68 l-6 43
189 189 c183 183 191 189 226 186 26 -2 42 3 60 20 26 24 33 76 12 97 -8 8 2
28 42 82 47 60 58 70 85 70 66 0 100 83 52 128 -31 29 -77 29 -105 -1z"/>
<path d="M422 2367 c-29 -31 -29 -77 1 -105 34 -32 79 -29 109 6 l24 29 140
-8 c76 -4 156 -8 177 -8 29 -1 37 -5 37 -19 0 -28 42 -62 76 -62 65 0 98 84
51 128 -33 32 -79 29 -109 -6 l-23 -28 -125 7 c-69 4 -149 8 -177 8 -44 1 -53
4 -53 19 0 28 -42 62 -76 62 -19 0 -39 -9 -52 -23z"/>
</g>
</svg>
